<svg xmlns="http://www.w3.org/2000/svg" xmlns:xlink="http://www.w3.org/1999/xlink" width="300" zoomAndPan="magnify" viewBox="0 0 224.87999 149.999998" height="200" preserveAspectRatio="xMidYMid meet" version="1.0"><defs><g/></defs><g fill="#000000" fill-opacity="1"><g transform="translate(5.683936, 112.44077)"><g><path d="M 3.734375 -37.359375 C 3.734375 -14.046875 20.472656 1.496094 41.019531 1.496094 C 53.796875 1.496094 66.050781 -2.464844 69.710938 -7.996094 L 69.710938 -40.496094 L 63.285156 -40.496094 L 63.285156 -15.617188 C 63.285156 -5.828125 49.238281 0 41.019531 0 C 23.757812 0 9.714844 -14.941406 9.714844 -37.359375 C 9.714844 -59.773438 23.757812 -74.714844 41.019531 -74.714844 C 53.796875 -74.714844 64.703125 -65.898438 65.824219 -57.53125 C 65.824219 -57.53125 69.1875 -57.382812 69.1875 -61.640625 C 69.1875 -71.277344 54.542969 -76.210938 41.019531 -76.210938 C 20.472656 -76.210938 3.734375 -60.667969 3.734375 -37.359375 Z M 3.734375 -37.359375 "/></g></g></g><g fill="#ff1616" fill-opacity="1"><g transform="translate(82.086941, 112.44077)"><g><path d="M 57.753906 0 L 57.753906 -6.648438 C 50.132812 -4.109375 29.4375 -1.496094 15.839844 -1.496094 C 13.148438 -1.496094 11.878906 -2.539062 11.878906 -6.574219 L 11.878906 -74.714844 L 5.976562 -74.714844 L 5.976562 0 Z M 57.753906 0 "/></g></g></g><g fill="#000000" fill-opacity="1"><g transform="translate(139.987862, 112.44077)"><g><path d="M 3.734375 -37.359375 C 3.734375 -14.046875 20.472656 1.496094 41.019531 1.496094 C 53.796875 1.496094 66.050781 -2.464844 69.710938 -7.996094 L 69.710938 -40.496094 L 63.285156 -40.496094 L 63.285156 -15.617188 C 63.285156 -5.828125 49.238281 0 41.019531 0 C 23.757812 0 9.714844 -14.941406 9.714844 -37.359375 C 9.714844 -59.773438 23.757812 -74.714844 41.019531 -74.714844 C 53.796875 -74.714844 64.703125 -65.898438 65.824219 -57.53125 C 65.824219 -57.53125 69.1875 -57.382812 69.1875 -61.640625 C 69.1875 -71.277344 54.542969 -76.210938 41.019531 -76.210938 C 20.472656 -76.210938 3.734375 -60.667969 3.734375 -37.359375 Z M 3.734375 -37.359375 "/></g></g></g><path fill="#ffffff" d="M 28.21875 81.015625 L 188.4375 81.015625 L 188.4375 97.0625 L 28.21875 97.0625 L 28.21875 81.015625 " fill-opacity="1" fill-rule="nonzero"/><g fill="#000000" fill-opacity="1"><g transform="translate(29.371138, 93.718302)"><g><path d="M 4.78125 -4.34375 L 7.609375 -4.34375 L 7.609375 -0.3125 C 7.160156 -0.175781 6.707031 -0.0703125 6.25 0 C 5.800781 0.0703125 5.28125 0.109375 4.6875 0.109375 C 3.4375 0.109375 2.457031 -0.257812 1.75 -1 C 1.050781 -1.75 0.703125 -2.796875 0.703125 -4.140625 C 0.703125 -5.003906 0.875 -5.757812 1.21875 -6.40625 C 1.570312 -7.050781 2.070312 -7.546875 2.71875 -7.890625 C 3.375 -8.234375 4.132812 -8.40625 5 -8.40625 C 5.882812 -8.40625 6.710938 -8.242188 7.484375 -7.921875 L 7.109375 -7.0625 C 6.359375 -7.382812 5.632812 -7.546875 4.9375 -7.546875 C 3.925781 -7.546875 3.140625 -7.242188 2.578125 -6.640625 C 2.015625 -6.046875 1.734375 -5.210938 1.734375 -4.140625 C 1.734375 -3.023438 2.003906 -2.175781 2.546875 -1.59375 C 3.085938 -1.019531 3.890625 -0.734375 4.953125 -0.734375 C 5.523438 -0.734375 6.085938 -0.796875 6.640625 -0.921875 L 6.640625 -3.484375 L 4.78125 -3.484375 Z M 4.78125 -4.34375 "/></g></g></g><g fill="#000000" fill-opacity="1"><g transform="translate(40.145593, 93.718302)"><g><path d="M 6.34375 0 L 5.3125 -2.640625 L 2 -2.640625 L 0.96875 0 L 0 0 L 3.28125 -8.328125 L 4.09375 -8.328125 L 7.34375 0 Z M 5.015625 -3.5 L 4.046875 -6.078125 C 3.921875 -6.398438 3.796875 -6.796875 3.671875 -7.265625 C 3.585938 -6.898438 3.46875 -6.503906 3.3125 -6.078125 L 2.328125 -3.5 Z M 5.015625 -3.5 "/></g></g></g><g fill="#000000" fill-opacity="1"><g transform="translate(49.814836, 93.718302)"><g><path d="M 1.140625 0 L 1.140625 -8.28125 L 2.109375 -8.28125 L 2.109375 -0.875 L 5.765625 -0.875 L 5.765625 0 Z M 1.140625 0 "/></g></g></g><g fill="#000000" fill-opacity="1"><g transform="translate(58.1635, 93.718302)"><g><path d="M 1.140625 0 L 1.140625 -8.28125 L 2.109375 -8.28125 L 2.109375 -0.875 L 5.765625 -0.875 L 5.765625 0 Z M 1.140625 0 "/></g></g></g><g fill="#000000" fill-opacity="1"><g transform="translate(66.512165, 93.718302)"><g><path d="M 6.34375 0 L 5.3125 -2.640625 L 2 -2.640625 L 0.96875 0 L 0 0 L 3.28125 -8.328125 L 4.09375 -8.328125 L 7.34375 0 Z M 5.015625 -3.5 L 4.046875 -6.078125 C 3.921875 -6.398438 3.796875 -6.796875 3.671875 -7.265625 C 3.585938 -6.898438 3.46875 -6.503906 3.3125 -6.078125 L 2.328125 -3.5 Z M 5.015625 -3.5 "/></g></g></g><g fill="#000000" fill-opacity="1"><g transform="translate(76.181406, 93.718302)"><g><path d="M 7.609375 0 L 6.515625 0 L 1.984375 -6.953125 L 1.9375 -6.953125 C 2 -6.140625 2.03125 -5.390625 2.03125 -4.703125 L 2.03125 0 L 1.140625 0 L 1.140625 -8.28125 L 2.234375 -8.28125 L 6.75 -1.359375 L 6.796875 -1.359375 C 6.785156 -1.460938 6.765625 -1.789062 6.734375 -2.34375 C 6.710938 -2.894531 6.707031 -3.289062 6.71875 -3.53125 L 6.71875 -8.28125 L 7.609375 -8.28125 Z M 7.609375 0 "/></g></g></g><g fill="#000000" fill-opacity="1"><g transform="translate(87.256247, 93.718302)"><g><path d="M 3.6875 0 L 2.734375 0 L 2.734375 -7.4375 L 0.109375 -7.4375 L 0.109375 -8.28125 L 6.3125 -8.28125 L 6.3125 -7.4375 L 3.6875 -7.4375 Z M 3.6875 0 "/></g></g></g><g fill="#000000" fill-opacity="1"><g transform="translate(101.340752, 93.718302)"><g><path d="M 1.140625 0 L 1.140625 -8.28125 L 2.109375 -8.28125 L 2.109375 -0.875 L 5.765625 -0.875 L 5.765625 0 Z M 1.140625 0 "/></g></g></g><g fill="#000000" fill-opacity="1"><g transform="translate(109.689419, 93.718302)"><g><path d="M 6.34375 0 L 5.3125 -2.640625 L 2 -2.640625 L 0.96875 0 L 0 0 L 3.28125 -8.328125 L 4.09375 -8.328125 L 7.34375 0 Z M 5.015625 -3.5 L 4.046875 -6.078125 C 3.921875 -6.398438 3.796875 -6.796875 3.671875 -7.265625 C 3.585938 -6.898438 3.46875 -6.503906 3.3125 -6.078125 L 2.328125 -3.5 Z M 5.015625 -3.5 "/></g></g></g><g fill="#000000" fill-opacity="1"><g transform="translate(119.358662, 93.718302)"><g><path d="M 8.375 0 L 7.421875 0 L 5.75 -5.546875 C 5.664062 -5.796875 5.570312 -6.109375 5.46875 -6.484375 C 5.375 -6.859375 5.328125 -7.082031 5.328125 -7.15625 C 5.242188 -6.65625 5.113281 -6.109375 4.9375 -5.515625 L 3.3125 0 L 2.359375 0 L 0.15625 -8.28125 L 1.171875 -8.28125 L 2.484375 -3.171875 C 2.660156 -2.453125 2.789062 -1.800781 2.875 -1.21875 C 2.976562 -1.90625 3.128906 -2.582031 3.328125 -3.25 L 4.8125 -8.28125 L 5.84375 -8.28125 L 7.390625 -3.203125 C 7.578125 -2.617188 7.734375 -1.957031 7.859375 -1.21875 C 7.929688 -1.757812 8.066406 -2.414062 8.265625 -3.1875 L 9.5625 -8.28125 L 10.59375 -8.28125 Z M 8.375 0 "/></g></g></g><g fill="#000000" fill-opacity="1"><g transform="translate(132.428546, 93.718302)"><g/></g></g><g fill="#000000" fill-opacity="1"><g transform="translate(137.767642, 93.718302)"><g><path d="M 4.78125 -4.34375 L 7.609375 -4.34375 L 7.609375 -0.3125 C 7.160156 -0.175781 6.707031 -0.0703125 6.25 0 C 5.800781 0.0703125 5.28125 0.109375 4.6875 0.109375 C 3.4375 0.109375 2.457031 -0.257812 1.75 -1 C 1.050781 -1.75 0.703125 -2.796875 0.703125 -4.140625 C 0.703125 -5.003906 0.875 -5.757812 1.21875 -6.40625 C 1.570312 -7.050781 2.070312 -7.546875 2.71875 -7.890625 C 3.375 -8.234375 4.132812 -8.40625 5 -8.40625 C 5.882812 -8.40625 6.710938 -8.242188 7.484375 -7.921875 L 7.109375 -7.0625 C 6.359375 -7.382812 5.632812 -7.546875 4.9375 -7.546875 C 3.925781 -7.546875 3.140625 -7.242188 2.578125 -6.640625 C 2.015625 -6.046875 1.734375 -5.210938 1.734375 -4.140625 C 1.734375 -3.023438 2.003906 -2.175781 2.546875 -1.59375 C 3.085938 -1.019531 3.890625 -0.734375 4.953125 -0.734375 C 5.523438 -0.734375 6.085938 -0.796875 6.640625 -0.921875 L 6.640625 -3.484375 L 4.78125 -3.484375 Z M 4.78125 -4.34375 "/></g></g></g><g fill="#000000" fill-opacity="1"><g transform="translate(148.542098, 93.718302)"><g><path d="M 2.109375 -3.453125 L 2.109375 0 L 1.140625 0 L 1.140625 -8.28125 L 3.40625 -8.28125 C 4.425781 -8.28125 5.175781 -8.085938 5.65625 -7.703125 C 6.144531 -7.316406 6.390625 -6.734375 6.390625 -5.953125 C 6.390625 -4.847656 5.835938 -4.101562 4.734375 -3.71875 L 6.984375 0 L 5.84375 0 L 3.828125 -3.453125 Z M 2.109375 -4.28125 L 3.421875 -4.28125 C 4.097656 -4.28125 4.59375 -4.410156 4.90625 -4.671875 C 5.226562 -4.941406 5.390625 -5.347656 5.390625 -5.890625 C 5.390625 -6.441406 5.226562 -6.835938 4.90625 -7.078125 C 4.582031 -7.316406 4.066406 -7.4375 3.359375 -7.4375 L 2.109375 -7.4375 Z M 2.109375 -4.28125 "/></g></g></g><g fill="#000000" fill-opacity="1"><g transform="translate(158.04131, 93.718302)"><g><path d="M 8.328125 -4.15625 C 8.328125 -2.832031 7.992188 -1.789062 7.328125 -1.03125 C 6.660156 -0.269531 5.726562 0.109375 4.53125 0.109375 C 3.3125 0.109375 2.367188 -0.257812 1.703125 -1 C 1.035156 -1.75 0.703125 -2.804688 0.703125 -4.171875 C 0.703125 -5.515625 1.035156 -6.554688 1.703125 -7.296875 C 2.367188 -8.046875 3.316406 -8.421875 4.546875 -8.421875 C 5.734375 -8.421875 6.660156 -8.039062 7.328125 -7.28125 C 7.992188 -6.53125 8.328125 -5.488281 8.328125 -4.15625 Z M 1.734375 -4.15625 C 1.734375 -3.03125 1.96875 -2.175781 2.4375 -1.59375 C 2.914062 -1.019531 3.613281 -0.734375 4.53125 -0.734375 C 5.445312 -0.734375 6.140625 -1.019531 6.609375 -1.59375 C 7.078125 -2.175781 7.3125 -3.03125 7.3125 -4.15625 C 7.3125 -5.269531 7.078125 -6.113281 6.609375 -6.6875 C 6.140625 -7.269531 5.453125 -7.5625 4.546875 -7.5625 C 3.617188 -7.5625 2.914062 -7.269531 2.4375 -6.6875 C 1.96875 -6.101562 1.734375 -5.257812 1.734375 -4.15625 Z M 1.734375 -4.15625 "/></g></g></g><g fill="#000000" fill-opacity="1"><g transform="translate(169.405211, 93.718302)"><g><path d="M 7.390625 -8.28125 L 7.390625 -2.921875 C 7.390625 -1.984375 7.101562 -1.242188 6.53125 -0.703125 C 5.96875 -0.160156 5.1875 0.109375 4.1875 0.109375 C 3.1875 0.109375 2.410156 -0.160156 1.859375 -0.703125 C 1.316406 -1.242188 1.046875 -1.992188 1.046875 -2.953125 L 1.046875 -8.28125 L 2.015625 -8.28125 L 2.015625 -2.875 C 2.015625 -2.1875 2.203125 -1.65625 2.578125 -1.28125 C 2.960938 -0.914062 3.519531 -0.734375 4.25 -0.734375 C 4.945312 -0.734375 5.484375 -0.914062 5.859375 -1.28125 C 6.242188 -1.65625 6.4375 -2.191406 6.4375 -2.890625 L 6.4375 -8.28125 Z M 7.390625 -8.28125 "/></g></g></g><g fill="#000000" fill-opacity="1"><g transform="translate(180.179668, 93.718302)"><g><path d="M 6.390625 -5.875 C 6.390625 -5.03125 6.101562 -4.382812 5.53125 -3.9375 C 4.957031 -3.488281 4.140625 -3.265625 3.078125 -3.265625 L 2.109375 -3.265625 L 2.109375 0 L 1.140625 0 L 1.140625 -8.28125 L 3.28125 -8.28125 C 5.351562 -8.28125 6.390625 -7.476562 6.390625 -5.875 Z M 2.109375 -4.09375 L 2.96875 -4.09375 C 3.820312 -4.09375 4.4375 -4.226562 4.8125 -4.5 C 5.195312 -4.78125 5.390625 -5.222656 5.390625 -5.828125 C 5.390625 -6.378906 5.207031 -6.785156 4.84375 -7.046875 C 4.488281 -7.316406 3.9375 -7.453125 3.1875 -7.453125 L 2.109375 -7.453125 Z M 2.109375 -4.09375 "/></g></g></g><path stroke-linecap="butt" transform="matrix(2.246583, 0, 0, 2.2488, 5.683936, 16.653589)" fill="none" stroke-linejoin="miter" d="M -0.000152191 -0.000553821 L 95.09566 -0.000553821 " stroke="#000000" stroke-width="1" stroke-opacity="1" stroke-miterlimit="4"/><path stroke-linecap="butt" transform="matrix(2.246583, 0, 0, 2.2488, 3.103528, 133.427345)" fill="none" stroke-linejoin="miter" d="M 0.000864016 -0.00069542 L 95.096677 -0.00069542 " stroke="#000000" stroke-width="1" stroke-opacity="1" stroke-miterlimit="4"/></svg>